<svg width="32" height="19" viewBox="0 0 32 19" fill="none" xmlns="http://www.w3.org/2000/svg">
<path d="M29.8667 1.02983C29.568 1.03004 29.2728 1.0923 29 1.21257C28.9365 1.24045 28.876 1.27448 28.8193 1.31417L23.3053 5.15507C23.0257 5.34987 22.7975 5.60834 22.6399 5.9087C22.4824 6.20905 22.4001 6.54249 22.4 6.8809V12.1191C22.4001 12.4575 22.4824 12.7909 22.6399 13.0913C22.7975 13.3917 23.0257 13.6501 23.3053 13.8449L28.8193 17.6858C28.876 17.7255 28.9365 17.7596 29 17.7874C29.3248 17.9303 29.6805 17.9907 30.0349 17.9629C30.3892 17.9352 30.731 17.8203 31.029 17.6286C31.3271 17.4369 31.572 17.1746 31.7416 16.8655C31.9112 16.5563 32 16.2102 32 15.8584V3.1416C32 2.5817 31.7752 2.04473 31.3752 1.64882C30.9751 1.2529 30.4325 1.03049 29.8667 1.03049V1.02983ZM16.8 0H4.53333C3.3314 0.00122261 2.17904 0.474257 1.32915 1.3153C0.47925 2.15635 0.00123538 3.2967 0 4.48611V14.5139C0.00123538 15.7033 0.47925 16.8437 1.32915 17.6847C2.17904 18.5257 3.3314 18.9988 4.53333 19H16.832C18.0254 18.9986 19.1695 18.5288 20.0134 17.6938C20.8572 16.8587 21.3319 15.7265 21.3333 14.5456V4.48611C21.3321 3.2967 20.8541 2.15635 20.0042 1.3153C19.1543 0.474257 18.0019 0.00122261 16.8 0Z" fill="white"/>
</svg>
