<svg width="26" height="33" viewBox="0 0 26 33" fill="none" xmlns="http://www.w3.org/2000/svg">
<path d="M25.6413 13.7922H15.5844C14.67 13.7922 13.7929 13.4289 13.1463 12.7823C12.4997 12.1357 12.1364 11.2586 12.1364 10.3442V0.287338C12.1364 0.211131 12.1061 0.138046 12.0522 0.0841593C11.9983 0.030273 11.9253 0 11.8491 0H5.24029C4.02098 0 2.85161 0.484368 1.98943 1.34655C1.12725 2.20873 0.642883 3.37809 0.642883 4.5974V27.5844C0.642883 28.8037 1.12725 29.9731 1.98943 30.8353C2.85161 31.6974 4.02098 32.1818 5.24029 32.1818H21.3312C22.5505 32.1818 23.7199 31.6974 24.582 30.8353C25.4442 29.9731 25.9286 28.8037 25.9286 27.5844V14.0795C25.9286 14.0033 25.8983 13.9303 25.8444 13.8764C25.7906 13.8225 25.7175 13.7922 25.6413 13.7922Z" fill="#5918DF"/>
<path d="M25.0106 11.2485L14.68 0.918C14.66 0.898029 14.6344 0.884442 14.6066 0.878949C14.5788 0.873455 14.55 0.876299 14.5239 0.887123C14.4977 0.897947 14.4753 0.916269 14.4595 0.939784C14.4437 0.963299 14.4352 0.990959 14.4351 1.01929V10.3441C14.4351 10.6489 14.5562 10.9413 14.7717 11.1568C14.9873 11.3724 15.2796 11.4935 15.5844 11.4935H24.9093C24.9376 11.4933 24.9653 11.4849 24.9888 11.4691C25.0123 11.4533 25.0306 11.4309 25.0414 11.4047C25.0523 11.3785 25.0551 11.3497 25.0496 11.3219C25.0441 11.2941 25.0305 11.2686 25.0106 11.2485Z" fill="#5918DF"/>
</svg>
