<svg width="20" height="24" viewBox="0 0 20 24" fill="none" xmlns="http://www.w3.org/2000/svg">
<path d="M19.2143 10.2857H11.7143C11.0323 10.2857 10.3782 10.0148 9.89599 9.53256C9.41376 9.05032 9.14284 8.39627 9.14284 7.71429V0.214286C9.14284 0.157454 9.12026 0.102949 9.08008 0.0627629C9.03989 0.0225765 8.98539 0 8.92855 0H3.99998C3.09067 0 2.2186 0.361224 1.57562 1.00421C0.932634 1.64719 0.571411 2.51926 0.571411 3.42857V20.5714C0.571411 21.4807 0.932634 22.3528 1.57562 22.9958C2.2186 23.6388 3.09067 24 3.99998 24H16C16.9093 24 17.7814 23.6388 18.4243 22.9958C19.0673 22.3528 19.4286 21.4807 19.4286 20.5714V10.5C19.4286 10.4432 19.406 10.3887 19.3658 10.3485C19.3256 10.3083 19.2711 10.2857 19.2143 10.2857Z" fill="white"/>
<path d="M18.7439 8.38875L11.0398 0.684645C11.0248 0.669752 11.0058 0.65962 10.985 0.655522C10.9643 0.651425 10.9428 0.653546 10.9233 0.661619C10.9038 0.669691 10.8871 0.683354 10.8753 0.700891C10.8635 0.718428 10.8572 0.739056 10.8571 0.760181V7.71429C10.8571 7.94162 10.9474 8.15963 11.1082 8.32038C11.2689 8.48113 11.4869 8.57143 11.7143 8.57143H18.6684C18.6895 8.57134 18.7101 8.56501 18.7277 8.55323C18.7452 8.54145 18.7589 8.52475 18.7669 8.50523C18.775 8.48571 18.7771 8.46423 18.773 8.44351C18.7689 8.42279 18.7588 8.40373 18.7439 8.38875Z" fill="white"/>
</svg>
