<svg width="30" height="24" viewBox="0 0 30 24" fill="none" xmlns="http://www.w3.org/2000/svg">
<path d="M28.5349 4.43123C28.4683 4.29434 28.3701 4.17533 28.2482 4.08414C28.1263 3.99294 27.9845 3.9322 27.8344 3.90697C27.6843 3.88174 27.5303 3.89276 27.3853 3.93911C27.2404 3.98546 27.1086 4.06579 27.001 4.17341L24.1026 7.07178C23.9844 7.1884 23.825 7.25378 23.6589 7.25378C23.4928 7.25378 23.3335 7.1884 23.2152 7.07178L21.9414 5.79797C21.8249 5.67958 21.7596 5.52012 21.7596 5.35401C21.7596 5.18789 21.8249 5.02844 21.9414 4.91004L24.8245 2.02641C24.9348 1.9161 25.0164 1.78045 25.0622 1.63131C25.1079 1.48218 25.1165 1.3241 25.087 1.17091C25.0575 1.01771 24.991 0.874074 24.8932 0.752551C24.7953 0.631029 24.6692 0.535326 24.5259 0.473812C22.2757 -0.489477 19.4782 0.0516649 17.7262 1.79352C16.207 3.30135 15.7526 5.64668 16.4796 8.23623C16.5109 8.34736 16.5108 8.46502 16.4792 8.57608C16.4475 8.68714 16.3857 8.78723 16.3005 8.8652L6.50329 17.9683C6.17872 18.2603 5.917 18.6153 5.73406 19.0117C5.55113 19.4081 5.45082 19.8376 5.43924 20.2741C5.42766 20.7105 5.50507 21.1447 5.66673 21.5503C5.82839 21.9558 6.07093 22.3242 6.37956 22.633C6.6882 22.9418 7.05647 23.1845 7.46195 23.3464C7.86742 23.5083 8.3016 23.5859 8.73804 23.5745C9.17448 23.5632 9.60404 23.4631 10.0005 23.2803C10.397 23.0976 10.7522 22.836 11.0444 22.5116L20.229 12.6974C20.3059 12.6141 20.4041 12.5534 20.5129 12.5218C20.6217 12.4901 20.7371 12.4887 20.8467 12.5178C23.3966 13.1977 25.7198 12.7444 27.2174 11.2712C28.0787 10.4212 28.6799 9.22161 28.9111 7.88774C29.1281 6.6298 28.991 5.36959 28.5349 4.43123Z" fill="white"/>
<path d="M24.7809 18.7224C23.991 18.0656 22.3035 16.5465 20.5838 14.9701L16.84 18.9711C18.4402 20.6711 19.8885 22.2492 20.5231 22.9875L20.5271 22.992C20.6795 23.1665 20.866 23.308 21.0752 23.4078C21.2843 23.5075 21.5116 23.5635 21.7431 23.5723H21.8054C22.2506 23.5709 22.6776 23.3956 22.9954 23.0838L22.9993 23.0799L24.8936 21.189C25.0582 21.0248 25.1866 20.8281 25.2707 20.6114C25.3549 20.3947 25.3928 20.1628 25.3821 19.9306C25.3715 19.6984 25.3124 19.471 25.2088 19.263C25.1052 19.0549 24.9592 18.8708 24.7803 18.7224H24.7809ZM6.71692 9.43741C6.71784 9.22235 6.65899 9.01126 6.54693 8.8277C6.53123 8.80288 6.52284 8.77413 6.52272 8.74476C6.5226 8.71539 6.53075 8.68658 6.54624 8.66163C6.56174 8.63668 6.58394 8.61659 6.61032 8.60367C6.63669 8.59075 6.66617 8.58552 6.69539 8.58858H6.69879C6.74638 8.59368 7.0008 8.63051 7.36176 8.8498C7.62978 9.01242 8.39474 9.5343 9.72635 10.8636C9.71217 11.3164 9.85691 11.7598 10.1355 12.1171L13.8883 8.62938C13.5559 8.31464 13.1216 8.12966 12.6644 8.10807C12.6601 8.10341 12.6561 8.09849 12.6525 8.09333L12.6157 8.05424L11.2251 6.13672C11.0705 5.92682 10.9691 5.68255 10.9297 5.42487C10.8902 5.16719 10.9138 4.90378 10.9985 4.65722C11.126 4.29 11.358 3.968 11.666 3.73077C11.9884 3.48088 12.7159 3.17999 13.3342 3.12899C13.6221 3.10518 13.912 3.12312 14.1949 3.18226C14.3304 3.21495 14.4639 3.25525 14.5949 3.30295C14.6346 3.31778 14.6753 3.32971 14.7168 3.33865C14.8966 3.3785 15.0844 3.3626 15.255 3.29309C15.4256 3.22357 15.5709 3.10373 15.6717 2.94952C15.7725 2.79531 15.824 2.61406 15.8192 2.4299C15.8144 2.24574 15.7536 2.0674 15.6449 1.91865C15.6302 1.89882 15.5701 1.81722 15.4812 1.70729C15.3152 1.49794 15.1333 1.30168 14.9372 1.12025C14.4754 0.703203 13.2786 1.87139e-06 11.7073 1.87139e-06C10.8081 -0.0006567 9.91726 0.172512 9.08378 0.509979C6.90958 1.38544 5.48731 2.58275 4.8334 3.21796L4.8283 3.22306C4.38831 3.65751 3.98092 4.1238 3.60946 4.61812C3.46903 4.81616 3.37774 5.04477 3.34314 5.28506C3.32697 5.38729 3.27322 5.47981 3.19241 5.54448C3.11159 5.60915 3.00955 5.64131 2.90626 5.63468H2.84449C2.53559 5.63262 2.23841 5.7528 2.01777 5.969L0.349008 7.59582L0.330875 7.61396C0.120961 7.83204 0.00257079 8.12226 4.13771e-05 8.42494C-0.00248803 8.72763 0.111036 9.01978 0.317276 9.24135C0.328042 9.25268 0.338241 9.26345 0.349574 9.27421L3.04112 11.8995C3.26288 12.1167 3.56078 12.2388 3.87125 12.2394C4.18015 12.2415 4.47733 12.1213 4.69798 11.9051L6.3673 10.2738C6.47864 10.1649 6.56696 10.0348 6.62702 9.89108C6.68707 9.74741 6.71765 9.59313 6.71692 9.43741Z" fill="white"/>
</svg>
