<svg width="27" height="27" viewBox="0 0 27 27" fill="none" xmlns="http://www.w3.org/2000/svg">
<path d="M26.1 27H1.8C1.32261 27 0.864773 26.8104 0.527208 26.4728C0.189642 26.1352 0 25.6774 0 25.2V0.9C0 0.661305 0.0948211 0.432387 0.263604 0.263604C0.432387 0.0948211 0.661305 0 0.9 0C1.13869 0 1.36761 0.0948211 1.5364 0.263604C1.70518 0.432387 1.8 0.661305 1.8 0.9V25.2H26.1C26.3387 25.2 26.5676 25.2948 26.7364 25.4636C26.9052 25.6324 27 25.8613 27 26.1C27 26.3387 26.9052 26.5676 26.7364 26.7364C26.5676 26.9052 26.3387 27 26.1 27Z" fill="white"/>
<path d="M7.89111 23.3765H5.64494C5.10879 23.3765 4.59459 23.1627 4.21548 22.7823C3.83636 22.4018 3.62338 21.8858 3.62338 21.3477V12.7819C3.62338 12.2438 3.83636 11.7278 4.21548 11.3473C4.59459 10.9668 5.10879 10.7531 5.64494 10.7531H7.89111C8.42726 10.7531 8.94146 10.9668 9.32057 11.3473C9.69969 11.7278 9.91267 12.2438 9.91267 12.7819V21.3477C9.91267 21.8858 9.69969 22.4018 9.32057 22.7823C8.94146 23.1627 8.42726 23.3765 7.89111 23.3765ZM15.9774 23.3765H13.7312C13.195 23.3765 12.6808 23.1627 12.3017 22.7823C11.9226 22.4018 11.7096 21.8858 11.7096 21.3477V10.0768C11.7096 9.53878 11.9226 9.02276 12.3017 8.64229C12.6808 8.26183 13.195 8.04809 13.7312 8.04809H15.9774C16.5135 8.04809 17.0277 8.26183 17.4068 8.64229C17.7859 9.02276 17.9989 9.53878 17.9989 10.0768V21.3477C17.9989 21.8858 17.7859 22.4018 17.4068 22.7823C17.0277 23.1627 16.5135 23.3765 15.9774 23.3765ZM24.0434 23.3765H21.7972C21.261 23.3765 20.7469 23.1627 20.3677 22.7823C19.9886 22.4018 19.7756 21.8858 19.7756 21.3477V6.47016C19.7756 5.9321 19.9886 5.41608 20.3677 5.03562C20.7469 4.65515 21.261 4.44141 21.7972 4.44141H24.0434C24.5795 4.44141 25.0937 4.65515 25.4728 5.03562C25.8519 5.41608 26.0649 5.9321 26.0649 6.47016V21.3477C26.0649 21.8858 25.8519 22.4018 25.4728 22.7823C25.0937 23.1627 24.5795 23.3765 24.0434 23.3765Z" fill="white"/>
</svg>
