<svg width="19" height="28" viewBox="0 0 19 28" fill="none" xmlns="http://www.w3.org/2000/svg">
<path d="M11.3999 26.1333H7.59997C7.34801 26.1333 7.10638 26.2317 6.92822 26.4067C6.75006 26.5817 6.64998 26.8191 6.64998 27.0667C6.64998 27.3142 6.75006 27.5516 6.92822 27.7266C7.10638 27.9017 7.34801 28 7.59997 28H11.3999C11.6519 28 11.8935 27.9017 12.0717 27.7266C12.2498 27.5516 12.3499 27.3142 12.3499 27.0667C12.3499 26.8191 12.2498 26.5817 12.0717 26.4067C11.8935 26.2317 11.6519 26.1333 11.3999 26.1333ZM12.3499 23.3333H6.64998C6.39802 23.3333 6.15639 23.4317 5.97823 23.6067C5.80007 23.7817 5.69998 24.0191 5.69998 24.2667C5.69998 24.5142 5.80007 24.7516 5.97823 24.9266C6.15639 25.1017 6.39802 25.2 6.64998 25.2H12.3499C12.6019 25.2 12.8435 25.1017 13.0217 24.9266C13.1998 24.7516 13.2999 24.5142 13.2999 24.2667C13.2999 24.0191 13.1998 23.7817 13.0217 23.6067C12.8435 23.4317 12.6019 23.3333 12.3499 23.3333ZM16.2342 2.72361C14.4488 0.967192 12.0572 2.6451e-05 9.49995 2.6451e-05C8.25157 -0.00289689 7.0149 0.236521 5.86097 0.704529C4.70704 1.17254 3.6586 1.85991 2.77586 2.72717C1.89311 3.59444 1.19347 4.6245 0.717105 5.75819C0.240743 6.89188 -0.0029486 8.10686 2.69231e-05 9.33335C2.69231e-05 12.0528 1.06105 14.5968 2.90938 16.3123L3.16825 16.5509C4.23759 17.5333 5.69998 18.879 5.69998 20.0667V21.4667C5.69998 21.7142 5.80007 21.9516 5.97823 22.1266C6.15639 22.3017 6.39802 22.4 6.64998 22.4H8.07496C8.20094 22.4 8.32176 22.3508 8.41084 22.2633C8.49992 22.1758 8.54996 22.0571 8.54996 21.9333V15.0978C8.54999 15.0035 8.5209 14.9113 8.46652 14.8335C8.41214 14.7557 8.33503 14.696 8.24537 14.6621C7.6968 14.4422 7.17566 14.1614 6.69213 13.825C6.58347 13.7568 6.49007 13.6677 6.41762 13.5629C6.34517 13.4581 6.29518 13.3399 6.27071 13.2156C6.24623 13.0912 6.24778 12.9633 6.27525 12.8395C6.30272 12.7158 6.35554 12.5988 6.4305 12.4957C6.50546 12.3927 6.60099 12.3057 6.71126 12.2401C6.82154 12.1744 6.94425 12.1316 7.07194 12.114C7.19962 12.0965 7.32961 12.1047 7.45397 12.1381C7.57833 12.1715 7.69447 12.2294 7.79531 12.3083C8.23468 12.614 9.08077 13.0667 9.49995 13.0667C9.91914 13.0667 10.7652 12.6128 11.2058 12.3083C11.4109 12.1816 11.6576 12.1367 11.8953 12.1828C12.133 12.2289 12.3438 12.3625 12.4846 12.5562C12.6254 12.75 12.6855 12.9893 12.6526 13.2251C12.6197 13.461 12.4964 13.6756 12.3078 13.825C11.8242 14.1608 11.303 14.441 10.7545 14.6603C10.6649 14.6942 10.5878 14.754 10.5334 14.8318C10.479 14.9096 10.4499 15.0017 10.4499 15.0961V21.9333C10.4499 22.0571 10.5 22.1758 10.5891 22.2633C10.6781 22.3508 10.799 22.4 10.9249 22.4H12.3499C12.6019 22.4 12.8435 22.3017 13.0217 22.1266C13.1998 21.9516 13.2999 21.7142 13.2999 21.4667V20.0667C13.2999 18.907 14.7463 17.5624 15.8026 16.5801L16.0941 16.3083C17.9953 14.525 18.9999 12.1106 18.9999 9.33335C19.0062 8.10674 18.765 6.89107 18.2903 5.75657C17.8156 4.62207 17.1168 3.59123 16.2342 2.72361Z" fill="white"/>
</svg>
