<svg width="20" height="20" viewBox="0 0 20 20" fill="none" xmlns="http://www.w3.org/2000/svg">
<path d="M14.1665 1.66652C15.2707 1.66982 16.3286 2.10989 17.1094 2.89064C17.8901 3.67138 18.3302 4.72935 18.3335 5.83348V14.1665C18.3302 15.2707 17.8901 16.3286 17.1094 17.1094C16.3286 17.8901 15.2707 18.3302 14.1665 18.3335H5.83348C4.72935 18.3302 3.67138 17.8901 2.89064 17.1094C2.10989 16.3286 1.66982 15.2707 1.66652 14.1665V5.83348C1.66982 4.72935 2.10989 3.67138 2.89064 2.89064C3.67138 2.10989 4.72935 1.66982 5.83348 1.66652H14.1665ZM14.1665 0H5.83348C2.625 0 0 2.625 0 5.83348V14.1665C0 17.375 2.625 20 5.83348 20H14.1665C17.375 20 20 17.375 20 14.1665V5.83348C20 2.625 17.375 0 14.1665 0Z" fill="white"/>
<path d="M15.4165 5.83325C15.1693 5.83325 14.9276 5.75994 14.7221 5.62259C14.5165 5.48524 14.3563 5.29001 14.2617 5.06161C14.1671 4.8332 14.1423 4.58187 14.1905 4.33939C14.2388 4.09691 14.3578 3.87418 14.5326 3.69937C14.7075 3.52455 14.9302 3.4055 15.1727 3.35727C15.4151 3.30904 15.6665 3.33379 15.8949 3.4284C16.1233 3.52301 16.3185 3.68323 16.4559 3.88879C16.5932 4.09435 16.6665 4.33603 16.6665 4.58325C16.6669 4.7475 16.6348 4.91021 16.5721 5.06202C16.5094 5.21384 16.4173 5.35178 16.3012 5.46792C16.185 5.58407 16.0471 5.67613 15.8953 5.73882C15.7435 5.80151 15.5808 5.83361 15.4165 5.83325ZM10 6.66629C10.6593 6.66629 11.3038 6.86179 11.852 7.22808C12.4002 7.59437 12.8274 8.11499 13.0797 8.7241C13.332 9.33322 13.3981 10.0035 13.2694 10.6501C13.1408 11.2967 12.8233 11.8907 12.3571 12.3569C11.8909 12.8231 11.297 13.1406 10.6503 13.2692C10.0037 13.3978 9.33345 13.3318 8.72433 13.0795C8.11522 12.8272 7.5946 12.3999 7.22831 11.8518C6.86203 11.3036 6.66652 10.6591 6.66652 9.99977C6.66747 9.11596 7.01897 8.26863 7.64392 7.64369C8.26886 7.01874 9.1162 6.66723 10 6.66629ZM10 4.99977C9.0111 4.99977 8.0444 5.29301 7.22215 5.84242C6.39991 6.39183 5.75904 7.17272 5.3806 8.08635C5.00217 8.99998 4.90315 10.0053 5.09608 10.9752C5.289 11.9451 5.76521 12.836 6.46447 13.5353C7.16373 14.2346 8.05465 14.7108 9.02455 14.9037C9.99446 15.0966 10.9998 14.9976 11.9134 14.6192C12.8271 14.2407 13.6079 13.5999 14.1574 12.7776C14.7068 11.9554 15 10.9887 15 9.99977C15 8.67369 14.4732 7.40192 13.5355 6.46424C12.5979 5.52655 11.3261 4.99977 10 4.99977Z" fill="white"/>
</svg>
