<svg width="18" height="25" viewBox="0 0 18 25" fill="none" xmlns="http://www.w3.org/2000/svg">
<path d="M8.57772 10.2931C9.52518 10.2931 10.2933 9.52507 10.2933 8.5776C10.2933 7.63014 9.52518 6.86206 8.57772 6.86206C7.63025 6.86206 6.86217 7.63014 6.86217 8.5776C6.86217 9.52507 7.63025 10.2931 8.57772 10.2931Z" fill="#5918DF"/>
<path d="M8.57772 0C3.84818 0 0 3.68038 0 8.20245C0 10.356 0.981613 13.2199 2.9175 16.7148C4.47221 19.5208 6.27085 22.0581 7.20636 23.3207C7.36444 23.5364 7.57113 23.7118 7.80967 23.8328C8.04821 23.9537 8.31189 24.0167 8.57933 24.0167C8.84677 24.0167 9.11045 23.9537 9.34899 23.8328C9.58753 23.7118 9.79422 23.5364 9.9523 23.3207C10.8862 22.0581 12.6865 19.5208 14.2412 16.7148C16.1738 13.221 17.1554 10.3571 17.1554 8.20245C17.1554 3.68038 13.3073 0 8.57772 0ZM8.57772 12.0088C7.89912 12.0088 7.23575 11.8076 6.67151 11.4306C6.10727 11.0536 5.6675 10.5177 5.40781 9.89074C5.14812 9.26379 5.08017 8.57392 5.21256 7.90835C5.34495 7.24278 5.67173 6.63142 6.15158 6.15158C6.63142 5.67173 7.24278 5.34495 7.90835 5.21256C8.57392 5.08017 9.26379 5.14812 9.89074 5.40781C10.5177 5.6675 11.0536 6.10727 11.4306 6.67151C11.8076 7.23575 12.0088 7.89912 12.0088 8.57772C12.0078 9.4874 11.646 10.3595 11.0028 11.0028C10.3595 11.646 9.4874 12.0078 8.57772 12.0088Z" fill="#5918DF"/>
</svg>
