<svg width="26" height="26" viewBox="0 0 26 26" fill="none" xmlns="http://www.w3.org/2000/svg">
<path d="M25.9465 4.60564C25.9333 4.39822 25.851 4.20119 25.7126 4.0461C25.5743 3.89101 25.3879 3.78682 25.1833 3.75021C20.163 2.84951 18.0673 2.19836 13.3825 0.0824182C13.2623 0.0280962 13.1319 0 13 0C12.8681 0 12.7377 0.0280962 12.6175 0.0824182C7.93273 2.19836 5.837 2.84951 0.816741 3.75021C0.61214 3.78682 0.425736 3.89101 0.287367 4.0461C0.148998 4.20119 0.0666651 4.39822 0.0535462 4.60564C-0.169899 8.15214 0.30659 11.4566 1.47141 14.4274C2.42527 16.8507 3.83691 19.0675 5.62922 20.9569C8.73249 24.2492 12.0273 25.6792 12.6558 25.9322C12.8792 26.0226 13.1289 26.0226 13.3523 25.9322C13.9808 25.6792 17.2756 24.2492 20.3789 20.9569C22.1683 19.0668 23.5772 16.85 24.5286 14.4274C25.6934 11.4566 26.1699 8.15214 25.9465 4.60564ZM18.3435 8.96463L11.913 16.3931C11.8303 16.4889 11.7289 16.5667 11.615 16.6219C11.5011 16.6771 11.3772 16.7085 11.2507 16.714H11.2124C10.9694 16.7141 10.736 16.6188 10.5624 16.4488L7.70697 13.6515C7.61985 13.5662 7.5504 13.4645 7.50259 13.3523C7.45477 13.2401 7.42952 13.1196 7.42828 12.9976C7.42578 12.7513 7.52122 12.5141 7.69362 12.3382C7.86602 12.1623 8.10124 12.062 8.34755 12.0595C8.59386 12.057 8.83107 12.1525 9.00701 12.3248L11.1544 14.4309L16.9408 7.74938C17.0206 7.65717 17.1177 7.58157 17.2267 7.52691C17.3358 7.47225 17.4545 7.43959 17.5761 7.43081C17.6978 7.42202 17.8199 7.43728 17.9357 7.47571C18.0514 7.51414 18.1584 7.57499 18.2507 7.65479C18.3429 7.73458 18.4185 7.83176 18.4732 7.94077C18.5278 8.04978 18.5605 8.16849 18.5693 8.29012C18.578 8.41175 18.5628 8.53392 18.5243 8.64965C18.4859 8.76538 18.4251 8.87241 18.3453 8.96463H18.3435Z" fill="white"/>
</svg>
