<svg width="26" height="23" viewBox="0 0 26 23" fill="none" xmlns="http://www.w3.org/2000/svg">
<path d="M22.1863 3.86281C19.792 1.43314 16.5665 0.0484932 13.191 0.00124969C9.81539 -0.0459938 6.55395 1.24787 4.09535 3.60961C1.63676 5.97136 0.173456 9.21611 0.0144542 12.6587C-0.144547 16.1013 1.0132 19.4722 3.24321 22.0596L3.25297 22.0707C3.27086 22.0901 3.28767 22.11 3.30719 22.1288C3.34731 22.1753 3.39285 22.2279 3.44653 22.2827C3.65704 22.5111 3.91146 22.6927 4.19388 22.8161C4.4763 22.9396 4.78063 23.0021 5.08783 22.9999C5.39503 22.9978 5.69848 22.9309 5.97919 22.8035C6.25989 22.676 6.51182 22.4908 6.71919 22.2594C7.51711 21.3741 8.48626 20.6675 9.56538 20.1841C10.6445 19.7007 11.8101 19.4511 12.9885 19.4511C14.167 19.4511 15.3326 19.7007 16.4117 20.1841C17.4908 20.6675 18.46 21.3741 19.2579 22.2594C19.4668 22.4921 19.7208 22.6778 20.0037 22.805C20.2866 22.9322 20.5923 22.9981 20.9014 22.9984C21.2105 22.9987 21.5163 22.9335 21.7995 22.8069C22.0826 22.6802 22.3369 22.495 22.5463 22.2628L22.7203 22.069L22.7301 22.058C24.9273 19.525 26.0947 16.2314 25.994 12.8495C25.8932 9.46764 24.5319 6.25254 22.1879 3.86059L22.1863 3.86281ZM12.1178 4.40249C12.1178 4.1676 12.2092 3.94234 12.3719 3.77625C12.5346 3.61017 12.7552 3.51686 12.9853 3.51686C13.2154 3.51686 13.436 3.61017 13.5987 3.77625C13.7614 3.94234 13.8528 4.1676 13.8528 4.40249V6.17374C13.8528 6.40862 13.7614 6.63388 13.5987 6.79997C13.436 6.96605 13.2154 7.05936 12.9853 7.05936C12.7552 7.05936 12.5346 6.96605 12.3719 6.79997C12.2092 6.63388 12.1178 6.40862 12.1178 6.17374V4.40249ZM6.04525 14.1444H4.31024C4.08016 14.1444 3.85951 14.0511 3.69682 13.885C3.53413 13.7189 3.44273 13.4936 3.44273 13.2587C3.44273 13.0239 3.53413 12.7986 3.69682 12.6325C3.85951 12.4664 4.08016 12.3731 4.31024 12.3731H6.04525C6.27533 12.3731 6.49598 12.4664 6.65867 12.6325C6.82136 12.7986 6.91276 13.0239 6.91276 13.2587C6.91276 13.4936 6.82136 13.7189 6.65867 13.885C6.49598 14.0511 6.27533 14.1444 6.04525 14.1444ZM8.69114 8.87489C8.52847 9.04085 8.3079 9.13408 8.07792 9.13408C7.84794 9.13408 7.62738 9.04085 7.4647 8.87489L6.23773 7.62284C6.07502 7.45673 5.98361 7.23145 5.98361 6.99654C5.98361 6.76163 6.07502 6.53634 6.23773 6.37023C6.40043 6.20413 6.62111 6.11081 6.85122 6.11081C7.08132 6.11081 7.302 6.20413 7.4647 6.37023L8.69114 7.62284C8.85371 7.78891 8.94503 8.01408 8.94503 8.24887C8.94503 8.48365 8.85371 8.70882 8.69114 8.87489ZM16.786 10.1535L14.2106 14.3326C14.1053 14.4816 13.9771 14.6124 13.8311 14.72C13.4786 14.9711 13.0433 15.0701 12.6197 14.9955C12.1961 14.921 11.8184 14.6789 11.5686 14.3218C11.3188 13.9648 11.2169 13.5215 11.2853 13.0883C11.3536 12.655 11.5865 12.2668 11.9334 12.0078L16.027 9.37859C16.12 9.31237 16.2307 9.27687 16.3442 9.27687C16.4576 9.27687 16.5683 9.31237 16.6613 9.37859C16.7782 9.46473 16.8569 9.59458 16.8803 9.73979C16.9037 9.88499 16.8698 10.0337 16.786 10.1535ZM18.5059 8.87489C18.3419 9.03397 18.1235 9.12134 17.8973 9.11838C17.671 9.11543 17.4549 9.02237 17.2949 8.85906C17.135 8.69575 17.0438 8.47511 17.0409 8.24417C17.038 8.01323 17.1236 7.79028 17.2794 7.62284L18.5059 6.37023C18.6686 6.20413 18.8893 6.11081 19.1194 6.11081C19.3495 6.11081 19.5701 6.20413 19.7329 6.37023C19.8956 6.53634 19.987 6.76163 19.987 6.99654C19.987 7.23145 19.8956 7.45673 19.7329 7.62284L18.5059 8.87489ZM21.6603 14.1444H19.9253C19.6953 14.1444 19.4746 14.0511 19.3119 13.885C19.1492 13.7189 19.0578 13.4936 19.0578 13.2587C19.0578 13.0239 19.1492 12.7986 19.3119 12.6325C19.4746 12.4664 19.6953 12.3731 19.9253 12.3731H21.6603C21.8904 12.3731 22.1111 12.4664 22.2738 12.6325C22.4365 12.7986 22.5278 13.0239 22.5278 13.2587C22.5278 13.4936 22.4365 13.7189 22.2738 13.885C22.1111 14.0511 21.8904 14.1444 21.6603 14.1444Z" fill="white"/>
</svg>
