<svg width="34" height="34" viewBox="0 0 34 34" fill="none" xmlns="http://www.w3.org/2000/svg">
<path d="M17 0C7.61159 0 0 7.61159 0 17C0 26.3737 7.62712 34 17 34C26.3876 34 34 26.3876 34 17C34 7.6263 26.3737 0 17 0ZM25.8269 19.6154H16.0192C15.9325 19.6154 15.8494 19.5809 15.7881 19.5196C15.7268 19.4583 15.6923 19.3752 15.6923 19.2885V5.55769C15.6923 5.47099 15.7268 5.38783 15.7881 5.32652C15.8494 5.26521 15.9325 5.23077 16.0192 5.23077H17.9808C18.0675 5.23077 18.1506 5.26521 18.2119 5.32652C18.2732 5.38783 18.3077 5.47099 18.3077 5.55769V17H25.8269C25.9136 17 25.9968 17.0344 26.0581 17.0958C26.1194 17.1571 26.1538 17.2402 26.1538 17.3269V19.2885C26.1538 19.3752 26.1194 19.4583 26.0581 19.5196C25.9968 19.5809 25.9136 19.6154 25.8269 19.6154Z" fill="#5918DF"/>
</svg>
