<svg width="30" height="28" viewBox="0 0 30 28" fill="none" xmlns="http://www.w3.org/2000/svg">
<path d="M23.6241 27.997C23.4136 27.9978 23.2082 27.9322 23.0371 27.8095L14.9984 21.9828L6.95974 27.8095C6.788 27.9341 6.5811 28.0008 6.36894 28C6.15678 27.9992 5.95036 27.931 5.77953 27.8052C5.6087 27.6794 5.48231 27.5026 5.41862 27.3003C5.35494 27.0979 5.35726 26.8806 5.42526 26.6797L8.56048 17.3954L0.434903 11.8243C0.258898 11.7037 0.126059 11.5301 0.0557958 11.3287C-0.0144673 11.1273 -0.0184724 10.9087 0.0443658 10.7049C0.107204 10.5011 0.233592 10.3227 0.405064 10.1958C0.576536 10.0689 0.784105 10.0001 0.997443 9.99954H11.0219L14.0471 0.691481C14.1123 0.490524 14.2395 0.315367 14.4104 0.19114C14.5813 0.0669133 14.7871 0 14.9984 0C15.2097 0 15.4156 0.0669133 15.5865 0.19114C15.7574 0.315367 15.8846 0.490524 15.9498 0.691481L18.975 10.0027H28.9994C29.213 10.0026 29.4211 10.0708 29.5931 10.1975C29.765 10.3242 29.8919 10.5025 29.9552 10.7065C30.0184 10.9105 30.0147 11.1294 29.9445 11.3311C29.8743 11.5328 29.7413 11.7067 29.5651 11.8274L21.4364 17.3954L24.5697 26.6772C24.6205 26.8275 24.6348 26.9876 24.6114 27.1445C24.588 27.3014 24.5276 27.4505 24.4352 27.5794C24.3429 27.7084 24.2211 27.8135 24.0801 27.8861C23.939 27.9587 23.7827 27.9967 23.6241 27.997Z" fill="white"/>
</svg>
